<?xml version="1.0" encoding="iso-8859-1"?>
<!-- Uploaded to: SVG Repo, www.svgrepo.com, Generator: SVG Repo Mixer Tools -->
<!DOCTYPE svg PUBLIC "-//W3C//DTD SVG 1.1//EN" "http://www.w3.org/Graphics/SVG/1.1/DTD/svg11.dtd">
<svg fill="#000000" version="1.1" id="Capa_1" xmlns="http://www.w3.org/2000/svg" xmlns:xlink="http://www.w3.org/1999/xlink" 
	 width="100x" height="100px" viewBox="0 0 413.6 413.599"
	 xml:space="preserve">
<g>
	<g>
		<path d="M164.033,275.857c-5.676,0-11.219,1.562-16.031,4.521c-2.058,1.264-2.7,3.955-1.436,6.012
			c1.261,2.058,3.955,2.701,6.011,1.436c3.436-2.11,7.396-3.227,11.455-3.227c12.084,0,21.915,9.831,21.915,21.913
			c0,12.085-9.831,21.915-21.915,21.915s-21.915-9.83-21.915-21.915c0-2.415-1.957-4.371-4.371-4.371H97.479
			c-2.413,0-4.371,1.956-4.371,4.371s1.958,4.372,4.371,4.372h36.245c2.133,14.834,14.893,26.286,30.31,26.286
			c16.905,0,30.658-13.753,30.658-30.658C194.691,289.61,180.938,275.857,164.033,275.857z"/>
		<path d="M265.331,119.467c-11.061,0-11.383-12.328-11.383-13.733V95.403c0-10.461-8.512-18.974-18.974-18.974H18.974
			C8.512,76.429,0,84.941,0,95.403v196.506c0,10.641,6.137,18.976,13.973,18.976h5.58c2.131,14.837,14.891,26.286,30.308,26.286
			c16.905,0,30.659-13.752,30.659-30.657s-13.754-30.656-30.659-30.656c-5.674,0-11.219,1.563-16.031,4.521
			c-2.057,1.264-2.7,3.957-1.436,6.012c1.262,2.056,3.955,2.699,6.013,1.436c3.434-2.109,7.395-3.227,11.453-3.227
			c12.084,0,21.917,9.832,21.917,21.913c0,12.083-9.832,21.915-21.917,21.915c-12.083,0-21.915-9.832-21.915-21.915
			c0-2.415-1.957-4.371-4.371-4.371h-9.602c-2.133,0-5.23-3.985-5.23-10.232V95.403c0-5.641,4.59-10.231,10.231-10.231h216.001
			c5.641,0,10.23,4.59,10.23,10.231v10.331c0,10.826,6.301,22.476,20.126,22.476c2.895,0,6.135,4.375,6.135,10.233v153.466
			c0,5.644-4.59,10.233-10.233,10.233h-48.344c-2.415,0-4.372,1.956-4.372,4.371s1.957,4.371,4.372,4.371h48.344
			c10.464,0,18.976-8.512,18.976-18.976V138.442C280.207,127.979,273.534,119.467,265.331,119.467z"/>
		<path d="M405.981,213.888l-36.905-65.491c-4.662-8.269-15.746-14.746-25.233-14.746h-23.715c-10.334,0-18.742,8.407-18.742,18.743
			v61.791c0,10.336,8.408,18.743,18.742,18.743h50.298c2.415,0,4.371-1.957,4.371-4.372c0-2.414-1.956-4.371-4.371-4.371h-50.298
			c-5.515,0-10-4.486-10-10v-61.791c0-5.515,4.483-10,10-10h23.715c6.293,0,14.525,4.812,17.614,10.295l36.909,65.491
			c3.519,6.246,6.491,17.581,6.491,24.748v48.86c0,5.513-4.487,10-10.002,10h-15.634c-2.415,0-4.372,1.957-4.372,4.371
			c0,2.415,1.957,4.372,4.372,4.372h15.634c10.334,0,18.744-8.409,18.744-18.743v-48.86
			C413.6,234.229,410.253,221.473,405.981,213.888z"/>
		<path d="M335.606,275.149c-5.74,0-11.348,1.581-16.218,4.572c-2.059,1.265-2.701,3.956-1.438,6.014
			c1.263,2.057,3.955,2.7,6.014,1.436c3.49-2.146,7.517-3.278,11.64-3.278c12.278,0,22.269,9.989,22.269,22.268
			c0,12.277-9.99,22.267-22.269,22.267c-12.28,0-22.268-9.989-22.268-22.267c0-2.416-1.957-4.371-4.372-4.371h-16.527
			c-2.414,0-4.371,1.955-4.371,4.371c0,2.415,1.957,4.372,4.371,4.372h12.501c2.135,15.032,15.052,26.638,30.666,26.638
			c17.1,0,31.011-13.912,31.011-31.01C366.617,289.061,352.706,275.149,335.606,275.149z"/>
	</g>
</g>
</svg>